# xmcd
#
# Track frame offsets:
#	150
#	16090
#	28046
#	45577
#	95169
#	104042
#	119382
#	137124
#	157614
#	182750
#
# Disc length: 2708 seconds
#
# Revision: 1
# Processed by: cddbd v1.5.2PL0 Copyright (c) Steve Scherf et al.
# Submitted via: audiograbber 1.83.01
#
DISCID=7d0a920a
DTITLE=The Stumble - The World is Tough
DYEAR=2006
DGENRE=Blues
TTITLE0=You Upset Me Baby
TTITLE1=Leading Me On
TTITLE2=The World is Tough
TTITLE3=All Over Again
TTITLE4=Greyhound
TTITLE5=Saturday Night
TTITLE6=Small World Baby
TTITLE7=Be My Baby
TTITLE8=Work it Out on My Own
TTITLE9=Gimmie Back My Wig
EXTD=
EXTT0=
EXTT1=
EXTT2=
EXTT3=
EXTT4=
EXTT5=
EXTT6=
EXTT7=
EXTT8=
EXTT9=
PLAYORDER=
